<?xml version="1.0" encoding="UTF-8"?>
<svg width="20px" height="20px" viewBox="0 0 20 20" version="1.1" xmlns="http://www.w3.org/2000/svg" xmlns:xlink="http://www.w3.org/1999/xlink">
    <!-- Generator: sketchtool 53.1 (72631) - https://sketchapp.com -->
    <title>F6563032-73B5-49F8-A854-33466549CF3A</title>
    <desc>Created with sketchtool.</desc>
    <defs>
        <rect id="path-1" x="0" y="0" width="24" height="24"></rect>
    </defs>
    <g id="📱-Screens" stroke="none" stroke-width="1" fill="none" fill-rule="evenodd">
        <g id="07.1.1-Candidate-Detail-[Normal]" transform="translate(-1358.000000, -586.000000)">
            <g id="Group-4" transform="translate(300.000000, 464.000000)">
                <g id="Tables-/-Calls1" transform="translate(1.000000, 111.000000)">
                    <g id="icon-/-conversationhistory" transform="translate(1055.000000, 10.000000)">
                        <mask id="mask-2" fill="white">
                            <use xlink:href="#path-1"></use>
                        </mask>
                        <use id="Rectangle" fill="#3C4D53" fill-rule="nonzero" opacity="0" xlink:href="#path-1"></use>
                        <path d="M16.6015113,16.5168537 L16.6017311,16.4991667 C16.6107248,16.1372235 16.346652,15.8260045 15.9940111,15.7762978 C15.2550645,15.6789785 14.5295151,15.4984966 13.8295917,15.2376924 C13.5686438,15.1397435 13.2744716,15.2023914 13.0790812,15.3953137 L12.1722126,16.3008779 C11.9449149,16.5278487 11.5937607,16.5751859 11.3143282,16.4165247 C9.41489003,15.3380278 7.84218351,13.7675834 6.76213315,11.8708774 C6.60324342,11.5918467 6.6506488,11.2411977 6.87794651,11.0142269 L7.78199779,10.1114918 C7.97801533,9.91355334 8.04075348,9.61980426 7.94206014,9.35762304 C7.68148364,8.66031502 7.50074178,7.93580917 7.40417913,7.20448126 C7.35401603,6.85008743 7.04852383,6.58774203 6.6830817,6.59129905 L4.54154473,6.59129873 C4.34110328,6.59148722 4.14997011,6.67579062 4.01483462,6.82361556 C3.87969914,6.9714405 3.81300544,7.16917434 3.82995061,7.35739245 C4.05249525,9.45003368 4.76555842,11.4609019 5.91475243,13.2323497 C6.9548672,14.866833 8.34261982,16.2525896 9.98501274,17.2947694 C11.7457456,18.4349559 13.7497644,19.1468317 15.8231811,19.3719188 C16.0234291,19.3899902 16.2220276,19.3229226 16.3701864,19.1871926 C16.5183452,19.0514626 16.6023333,18.8596494 16.6015113,18.6559819 L16.6015113,16.5168537 Z M18.0296451,18.6530877 C18.0320934,19.2554075 17.7801291,19.8308471 17.3356526,20.2380371 C16.8911762,20.6452271 16.2953808,20.84643 15.6817735,20.7909377 C13.3734306,20.5404781 11.1561048,19.7528305 9.21351554,18.4948441 C7.39972244,17.3439423 5.86194251,15.8083742 4.71276324,14.0024509 C3.44498963,12.0482718 2.6560283,9.82336758 2.40870144,7.49686362 C2.35458196,6.89884075 2.55466303,6.30563922 2.96006949,5.8621644 C3.36547595,5.41868958 3.93887546,5.16577939 4.54087227,5.16521361 L6.67605407,5.16524814 C7.75129759,5.15468068 8.66777419,5.94171688 8.8191604,7.01145413 C8.90253619,7.64270723 9.05715928,8.2625157 9.27947687,8.85744801 C9.57374683,9.6391657 9.38553238,10.5204129 8.79466237,11.1170573 L8.28260822,11.628375 C9.12225146,12.9436884 10.2399756,14.0598043 11.5571841,14.8982393 L12.0720672,14.3841057 C12.6667378,13.7968989 13.5492545,13.6089551 14.3304872,13.9021993 C14.9278874,14.1247996 15.5485887,14.2792003 16.1871311,14.3633257 C17.2609797,14.5146016 18.0516813,15.4431456 18.0296509,16.5248233 L18.0296451,18.6530877 Z M16.6015113,11.5825981 C13.8409223,11.5825981 11.6030227,9.3479174 11.6030227,6.59129905 C11.6030227,3.8346807 13.8409223,1.6 16.6015113,1.6 C19.3621004,1.6 21.6,3.8346807 21.6,6.59129905 C21.6,9.3479174 19.3621004,11.5825981 16.6015113,11.5825981 Z M16.6015113,10.1565127 C18.5733607,10.1565127 20.1718604,8.56031215 20.1718604,6.59129905 C20.1718604,4.62228594 18.5733607,3.02608544 16.6015113,3.02608544 C14.629662,3.02608544 13.0311623,4.62228594 13.0311623,6.59129905 C13.0311623,8.56031215 14.629662,10.1565127 16.6015113,10.1565127 Z M18.5244289,7.10928841 C18.8152739,7.2399823 18.9358735,7.56513757 18.7869925,7.83274181 C18.6417102,8.09387751 18.2954668,8.19760266 18.0107457,8.06966062 L16.1066291,7.2140281 C15.9079346,7.12474289 15.7803311,6.93918724 15.7803311,6.73384199 L15.7803311,4.16694443 C15.7803311,3.86893854 16.0437804,3.63217176 16.3634707,3.63217176 C16.683161,3.63217176 16.9466103,3.86893854 16.9466103,4.16694443 L16.9466103,6.40028094 L18.5244289,7.10928841 Z" id="Combined-Shape" fill="#454545" fill-rule="nonzero" mask="url(#mask-2)"></path>
                    </g>
                </g>
            </g>
        </g>
    </g>
</svg>