<svg xmlns="http://www.w3.org/2000/svg" xmlns:xlink="http://www.w3.org/1999/xlink" width="20" height="14" viewBox="0 0 20 14">
  <defs>
    <rect id="candidates-a" width="20" height="20"/>
  </defs>
  <g fill="none" fill-rule="evenodd" transform="translate(0 -3)">
    <mask id="candidates-b" fill="#fff">
      <use xlink:href="#candidates-a"/>
    </mask>
    <use fill="#FFF" fill-rule="nonzero" opacity="0" xlink:href="#candidates-a"/>
    <path fill="#FFF" fill-rule="nonzero" d="M16,16 C16,16.3681898 15.7015232,16.6666667 15.3333333,16.6666667 C14.9651435,16.6666667 14.6666667,16.3681898 14.6666667,16 L14.6666667,14.6666667 C14.6666667,13.5620972 13.7712362,12.6666667 12.6666667,12.6666667 L7.33333333,12.6666667 C6.22876383,12.6666667 5.33333333,13.5620972 5.33333333,14.6666667 L5.33333333,16 C5.33333333,16.3681898 5.0348565,16.6666667 4.66666667,16.6666667 C4.29847683,16.6666667 4,16.3681898 4,16 L4,14.6666667 C4,12.8257175 5.49238417,11.3333333 7.33333333,11.3333333 L12.6666667,11.3333333 C14.5076158,11.3333333 16,12.8257175 16,14.6666667 L16,16 Z M10,10 C8.15905083,10 6.66666667,8.50761583 6.66666667,6.66666667 C6.66666667,4.8257175 8.15905083,3.33333333 10,3.33333333 C11.8409492,3.33333333 13.3333333,4.8257175 13.3333333,6.66666667 C13.3333333,8.50761583 11.8409492,10 10,10 Z M10,8.66666667 C11.1045695,8.66666667 12,7.77123617 12,6.66666667 C12,5.56209717 11.1045695,4.66666667 10,4.66666667 C8.8954305,4.66666667 8,5.56209717 8,6.66666667 C8,7.77123617 8.8954305,8.66666667 10,8.66666667 Z M20,16 C20,16.3681898 19.7015232,16.6666667 19.3333333,16.6666667 C18.9651435,16.6666667 18.6666667,16.3681898 18.6666667,16 L18.6666669,14.6671639 C18.665987,13.7557228 18.0491662,12.960024 17.1666669,12.7321639 C16.8101686,12.6401166 16.5957887,12.2764985 16.6878361,11.9200002 C16.7798834,11.5635019 17.1435015,11.349122 17.4999998,11.4411694 C18.9708321,11.8209362 19.9988667,13.1471008 20,14.6666667 L20,16 Z M14.5013072,4.7325 C14.1446233,4.64117449 13.9295078,4.27799111 14.0208333,3.92130721 C14.1121588,3.56462331 14.4753422,3.34950783 14.8320261,3.44083333 C16.3069551,3.81847482 17.3385622,5.14749262 17.3385622,6.67 C17.3385622,8.19250738 16.3069551,9.52152518 14.8320261,9.89916667 C14.4753422,9.99049217 14.1121588,9.77537669 14.0208333,9.41869279 C13.9295078,9.06200889 14.1446233,8.69882551 14.5013072,8.6075 C15.3862646,8.38091511 16.0052288,7.58350443 16.0052288,6.67 C16.0052288,5.75649557 15.3862646,4.95908489 14.5013072,4.7325 Z M-1.15463195e-13,15.9134938 L-1.15463195e-13,14.5801605 C0.00113327174,13.0605947 1.02916787,11.73443 2.50000019,11.3546632 C2.85649848,11.2626159 3.22011658,11.4769957 3.31216394,11.833494 C3.40421129,12.1899923 3.18983145,12.5536104 2.83333315,12.6456578 C1.95083376,12.8735178 1.334013,13.6692166 1.33333315,14.5806578 L1.33333333,15.9134938 C1.33333333,16.2816836 1.0348565,16.5801605 0.666666667,16.5801605 C0.298476833,16.5801605 -1.15463195e-13,16.2816836 -1.15463195e-13,15.9134938 Z M5.49869279,4.64599382 C4.61373538,4.87257871 3.99477116,5.66998939 3.99477116,6.58349382 C3.99477116,7.49699824 4.61373538,8.29440892 5.49869279,8.52099382 C5.85537669,8.61231932 6.07049217,8.9755027 5.97916667,9.33218661 C5.88784116,9.68887051 5.52465778,9.90398599 5.16797388,9.81266048 C3.69304485,9.43501899 2.66143783,8.10600119 2.66143783,6.58349382 C2.66143783,5.06098644 3.69304485,3.73196864 5.16797388,3.35432715 C5.52465778,3.26300164 5.88784116,3.47811712 5.97916667,3.83480103 C6.07049217,4.19148493 5.85537669,4.55466831 5.49869279,4.64599382 Z" mask="url(#candidates-b)"/>
  </g>
</svg>
