<svg xmlns="http://www.w3.org/2000/svg" xmlns:xlink="http://www.w3.org/1999/xlink" width="14" height="16" viewBox="0 0 14 16">
  <defs>
    <rect id="home-a" width="20" height="20"/>
  </defs>
  <g fill="none" fill-rule="evenodd" transform="translate(-3 -2)">
    <mask id="home-b" fill="#fff">
      <use xlink:href="#home-a"/>
    </mask>
    <use fill="#3C4D53" fill-rule="nonzero" opacity="0" xlink:href="#home-a"/>
    <g fill="#FFF" fill-rule="nonzero" mask="url(#home-b)">
      <path d="M4,13.3333333 L4,7.33333333 C4,6.9651435 4.29847683,6.66666667 4.66666667,6.66666667 L8.66666667,6.66666667 C9.0348565,6.66666667 9.33333333,6.9651435 9.33333333,7.33333333 L9.33333333,13.3333333 L11.3333333,13.3333333 C11.7015232,13.3333333 12,13.0348565 12,12.6666667 L12,5.6593892 L6.66666667,1.51124106 L1.33333333,5.6593892 L1.33333333,12.6666667 C1.33333333,13.0348565 1.63181017,13.3333333 2,13.3333333 L4,13.3333333 Z M5.33333333,13.3333333 L8,13.3333333 L8,8 L5.33333333,8 L5.33333333,13.3333333 Z M0.257372924,4.80709852 L6.25737292,0.140431855 C6.49811325,-0.0468106184 6.83522009,-0.0468106184 7.07596041,0.140431855 L13.0759604,4.80709852 C13.2383514,4.93340265 13.3333333,5.12760638 13.3333333,5.33333333 L13.3333333,12.6666667 C13.3333333,13.7712362 12.4379028,14.6666667 11.3333333,14.6666667 L2,14.6666667 C0.8954305,14.6666667 0,13.7712362 0,12.6666667 L0,5.33333333 C0,5.12760638 0.0949818959,4.93340265 0.257372924,4.80709852 Z" transform="translate(3.333 2.667)"/>
    </g>
  </g>
</svg>
