<?xml version="1.0" encoding="UTF-8"?>
<svg width="80px" height="80px" viewBox="0 0 80 80" version="1.1" xmlns="http://www.w3.org/2000/svg" xmlns:xlink="http://www.w3.org/1999/xlink">
    <!-- Generator: sketchtool 53.1 (72631) - https://sketchapp.com -->
    <title>4F987D7A-CDF7-45E5-9B5A-4685F1F344B0</title>
    <desc>Created with sketchtool.</desc>
    <defs>
        <rect id="path-1" x="0" y="0" width="30" height="30"></rect>
    </defs>
    <g id="📱-Screens" stroke="none" stroke-width="1" fill="none" fill-rule="evenodd">
        <g id="Signin-[First-Version]" transform="translate(-165.000000, -391.000000)">
            <g id="Left">
                <g id="3" transform="translate(165.000000, 391.000000)">
                    <g id="how_it_works3">
                        <circle id="Oval" fill="#00D157" fill-rule="nonzero" cx="40" cy="40" r="40"></circle>
                        <g id="icon-/-call" transform="translate(25.000000, 25.000000)">
                            <g id="icon-/-plus">
                                <mask id="mask-2" fill="white">
                                    <use xlink:href="#path-1"></use>
                                </mask>
                                <use id="Rectangle" fill="#3C4D53" fill-rule="nonzero" opacity="0" xlink:href="#path-1"></use>
                                <g id="phone" mask="url(#mask-2)" fill="#FFFFFF" fill-rule="nonzero">
                                    <g transform="translate(4.000000, 4.000000)" id="Path">
                                        <path d="M20,15.92 L20.0003077,15.895195 C20.0129027,15.3875913 19.643089,14.9511251 19.1492425,14.8814144 C18.1144045,14.7449298 17.0983282,14.4918147 16.1181391,14.1260523 C15.7527016,13.9886848 15.340736,14.0765448 15.0671068,14.3471068 L13.7971068,15.6171068 C13.4787938,15.9354198 12.9870293,16.0018074 12.5957055,15.7792945 C9.93568805,14.2667668 7.73323318,12.064312 6.22070549,9.40429451 C5.99819261,9.01297066 6.06458021,8.52120622 6.38289322,8.20289322 L7.64894769,6.93686088 C7.92345523,6.65926402 8.0113152,6.2472984 7.87310275,5.87960484 C7.50818534,4.90167182 7.25507024,3.88559547 7.11984165,2.85995157 C7.04959207,2.36293531 6.62177368,1.99501149 6.11,2 L3.11094173,1.99999956 C2.83023885,2.0002639 2.5625715,2.1184944 2.37332462,2.32581008 C2.18407773,2.53312577 2.09067833,2.81043572 2.11440873,3.07440043 C2.42606543,6.00920526 3.42465571,8.82932831 5.03401379,11.3136785 C6.49061475,13.6059441 8.43405585,15.5493853 10.7341012,17.0109804 C13.1998725,18.6100241 16.0063472,19.6083877 18.9100082,19.924059 C19.1904402,19.949403 19.4685621,19.8553447 19.6760472,19.6649914 C19.8835322,19.4746382 20.0011511,19.2056315 20,18.92 L20,15.92 Z M22,15.9311768 L21.9999918,18.915941 C22.0034205,19.7606587 21.6505637,20.5676786 21.0281086,21.1387383 C20.4056534,21.7097981 19.5712877,21.9919732 18.7119777,21.9141485 C15.4793206,21.5628939 12.3741258,20.4582649 9.65367852,18.6940138 C7.11360039,17.0799425 4.96005755,14.9263996 3.35072012,12.3936996 C1.5753004,9.65307965 0.470420574,6.53278385 0.124058275,3.27000044 C0.0482680902,2.43130894 0.328466287,1.59937908 0.896206944,0.977432027 C1.4639476,0.355484975 2.26694964,0.000793478781 3.11,-8.37668151e-15 L6.10015835,4.84302099e-05 C7.60595443,-0.0147718055 8.88940962,1.08899965 9.10141438,2.58924251 C9.21817579,3.47453743 9.43471357,4.34378194 9.74605231,5.17813912 C10.1581548,6.27445166 9.89457491,7.51034851 9.06710678,8.34710678 L8.35001421,9.06419935 C9.52587018,10.9088481 11.0911572,12.4741344 12.9358065,13.6499895 L13.6568609,12.9289477 C14.4896515,12.1054251 15.7255483,11.8418452 16.8196048,12.2531028 C17.6562181,12.5652864 18.5254626,12.7818242 19.4196923,12.899805 C20.9235348,13.1119605 22.0308518,14.4141882 22,15.9311768 Z"></path>
                                    </g>
                                </g>
                            </g>
                        </g>
                    </g>
                </g>
            </g>
        </g>
    </g>
</svg>