<svg xmlns="http://www.w3.org/2000/svg" xmlns:xlink="http://www.w3.org/1999/xlink" width="14" height="14" viewBox="0 0 14 14">
  <defs>
    <rect id="logout-a" width="20" height="20"/>
  </defs>
  <g fill="none" fill-rule="evenodd" transform="translate(-3 -3)">
    <mask id="logout-b" fill="#fff">
      <use xlink:href="#logout-a"/>
    </mask>
    <use fill="#3C4D53" fill-rule="nonzero" opacity="0" xlink:href="#logout-a"/>
    <path fill="#FFF" fill-rule="nonzero" d="M14.3905243,10.6666667 L8,10.6666667 C7.63181017,10.6666667 7.33333333,10.3681898 7.33333333,10 C7.33333333,9.63181017 7.63181017,9.33333333 8,9.33333333 L14.3905243,9.33333333 L12.1952621,7.13807119 C11.9349126,6.87772166 11.9349126,6.45561167 12.1952621,6.19526215 C12.4556117,5.93491262 12.8777217,5.93491262 13.1380712,6.19526215 L16.4714045,9.52859548 C16.731754,9.78894501 16.731754,10.211055 16.4714045,10.4714045 L13.1380712,13.8047379 C12.8777217,14.0650874 12.4556117,14.0650874 12.1952621,13.8047379 C11.9349126,13.5443883 11.9349126,13.1222783 12.1952621,12.8619288 L14.3905243,10.6666667 Z M8,15.3333333 C8.36818983,15.3333333 8.66666667,15.6318102 8.66666667,16 C8.66666667,16.3681898 8.36818983,16.6666667 8,16.6666667 L5.33333333,16.6666667 C4.22876383,16.6666667 3.33333333,15.7712362 3.33333333,14.6666667 L3.33333333,5.33333333 C3.33333333,4.22876383 4.22876383,3.33333333 5.33333333,3.33333333 L8,3.33333333 C8.36818983,3.33333333 8.66666667,3.63181017 8.66666667,4 C8.66666667,4.36818983 8.36818983,4.66666667 8,4.66666667 L5.33333333,4.66666667 C4.9651435,4.66666667 4.66666667,4.9651435 4.66666667,5.33333333 L4.66666667,14.6666667 C4.66666667,15.0348565 4.9651435,15.3333333 5.33333333,15.3333333 L8,15.3333333 Z" mask="url(#logout-b)"/>
  </g>
</svg>
