<?xml version="1.0" encoding="UTF-8"?>
<svg width="146px" height="30px" viewBox="0 0 146 30" version="1.1" xmlns="http://www.w3.org/2000/svg" xmlns:xlink="http://www.w3.org/1999/xlink">
    <!-- Generator: sketchtool 53.1 (72631) - https://sketchapp.com -->
    <title>FAAE9EA5-B6DA-4B7E-8CF4-B0ED59891E28</title>
    <desc>Created with sketchtool.</desc>
    <g id="📱-Screens" stroke="none" stroke-width="1" fill="none" fill-rule="evenodd">
        <g id="Signin-[First-Version]" transform="translate(-925.000000, -50.000000)" fill-rule="nonzero">
            <g id="Logo" transform="translate(925.000000, 50.000000)">
                <g id="Group-2" transform="translate(32.500000, 8.214286)">
                    <path d="M13.3521429,3.27285714 L8.39214286,3.27285714 L8.39214286,16.0714286 L5.31428571,16.0714286 L5.31428571,3.27285714 L0.354285714,3.27285714 L0.354285714,0.372142857 L13.3521429,0.372142857 L13.3521429,3.27285714 Z M11.5178571,13.1042857 C11.5178571,11.1557143 12.9571428,10.0707143 14.7728571,9.805 L17.4521428,9.40642857 C18.0721428,9.31785714 18.2714285,9.00785714 18.2714285,8.63142857 C18.2714285,7.85642857 17.6735714,7.21428571 16.4335714,7.21428571 C15.1492857,7.21428571 14.4407142,8.03357143 14.3521428,8.98571429 L11.7392857,8.43214286 C11.9164285,6.72714286 13.4885714,4.845 16.4114285,4.845 C19.8657142,4.845 21.15,6.79357143 21.15,8.98571429 L21.15,14.3442857 C21.15,14.92 21.2164285,15.695 21.2828571,16.0714286 L18.5814285,16.0714286 C18.515,15.7835714 18.4707142,15.1857143 18.4707142,14.765 C17.9171428,15.6285714 16.8764285,16.3814286 15.26,16.3814286 C12.935,16.3814286 11.5178571,14.8092857 11.5178571,13.1042857 Z M15.88,14.1892857 C17.12,14.1892857 18.2714285,13.5914286 18.2714285,11.665 L18.2714285,11.1778571 L15.8135714,11.5542857 C15.0607142,11.665 14.4628571,12.0857143 14.4628571,12.9271429 C14.4628571,13.5692857 14.9278571,14.1892857 15.88,14.1892857 Z M25.8478571,16.0714286 L22.9028571,16.0714286 L22.9028571,0.04 L25.8478571,0.04 L25.8478571,16.0714286 Z M29.9257142,9.38428571 L34.7971427,9.38428571 C34.752857,8.29928571 34.0442856,7.23642857 32.3614285,7.23642857 C30.8335713,7.23642857 29.9921427,8.38785714 29.9257142,9.38428571 Z M35.0849999,12.2185714 L37.5428571,12.9492857 C36.9892857,14.8314286 35.2621427,16.4035714 32.582857,16.4035714 C29.5935713,16.4035714 26.9585713,14.2557143 26.9585713,10.58 C26.9585713,7.10357143 29.5271428,4.845 32.3171428,4.845 C35.682857,4.845 37.6978571,6.99285714 37.6978571,10.4914286 C37.6978571,10.9121429 37.6535714,11.355 37.6535714,11.3992857 L29.8592856,11.3992857 C29.9257142,12.8385714 31.1435713,13.8792857 32.6049999,13.8792857 C33.977857,13.8792857 34.7307142,13.1928571 35.0849999,12.2185714 Z M41.7535714,9.805 L41.7535714,16.0714286 L38.8085714,16.0714286 L38.8085714,5.17714286 L41.665,5.17714286 L41.665,6.52785714 C42.3292857,5.39857143 43.6357143,4.88928571 44.8092857,4.88928571 C47.5107143,4.88928571 48.7507143,6.81571429 48.7507143,9.20714286 L48.7507143,16.0714286 L45.8057143,16.0714286 L45.8057143,9.71642857 C45.8057143,8.49857143 45.2078571,7.54642857 43.7907143,7.54642857 C42.5064286,7.54642857 41.7535714,8.54285714 41.7535714,9.805 Z M54.1571429,1.92214286 L54.1571429,5.17714286 L56.3492857,5.17714286 L56.3492857,7.79 L54.1571429,7.79 L54.1571429,12.3514286 C54.1571429,13.3035714 54.6,13.6135714 55.4414286,13.6135714 C55.7957143,13.6135714 56.1942857,13.5692857 56.3492857,13.525 L56.3492857,15.9607143 C56.0835714,16.0714286 55.5521429,16.2264286 54.6885714,16.2264286 C52.5628571,16.2264286 51.2342857,14.9642857 51.2342857,12.8607143 L51.2342857,7.79 L49.2635714,7.79 L49.2635714,5.17714286 L49.8171429,5.17714286 C50.9685714,5.17714286 51.5,4.42428571 51.5,3.45 L51.5,1.92214286 L54.1571429,1.92214286 Z" id="Shape" fill="#0139BA"></path>
                    <path d="M67.6235711,16.0714286 L57.7921425,16.0714286 L57.7921425,0.372142857 L67.6235711,0.372142857 L67.6235711,3.25071429 L60.8478568,3.25071429 L60.8478568,6.83785714 L66.9814282,6.83785714 L66.9814282,9.56142857 L60.8478568,9.56142857 L60.8478568,13.1928571 L67.6235711,13.1928571 L67.6235711,16.0714286 Z M72.0557139,9.805 L72.0557139,16.0714286 L69.1107139,16.0714286 L69.1107139,5.17714286 L71.9671425,5.17714286 L71.9671425,6.52785714 C72.6314282,5.39857143 73.9378568,4.88928571 75.1114282,4.88928571 C77.8128568,4.88928571 79.0528568,6.81571429 79.0528568,9.20714286 L79.0528568,16.0714286 L76.1078568,16.0714286 L76.1078568,9.71642857 C76.1078568,8.49857143 75.5099996,7.54642857 74.0928568,7.54642857 C72.8085711,7.54642857 72.0557139,8.54285714 72.0557139,9.805 Z M90.9028568,5.17714286 L86.6735711,16.0714286 L83.7285711,16.0714286 L79.2778568,5.17714286 L82.5107139,5.17714286 L85.2121425,12.4842857 L87.8028568,5.17714286 L90.9028568,5.17714286 Z M96.0435711,4.845 C99.2985711,4.845 101.756428,7.25857143 101.756428,10.6242857 C101.756428,13.9678571 99.2985711,16.4035714 96.0435711,16.4035714 C92.7885711,16.4035714 90.3307139,13.9678571 90.3307139,10.6242857 C90.3307139,7.25857143 92.7885711,4.845 96.0435711,4.845 Z M96.0435711,13.7242857 C97.4828568,13.7242857 98.8114282,12.6835714 98.8114282,10.6242857 C98.8114282,8.565 97.4828568,7.52428571 96.0435711,7.52428571 C94.6042854,7.52428571 93.2757139,8.565 93.2757139,10.6242857 C93.2757139,12.6614286 94.6042854,13.7242857 96.0435711,13.7242857 Z M106.631428,20.3671429 L103.509285,20.3671429 L106.077857,14.6985714 L101.45,5.17714286 L104.749285,5.17714286 L107.65,11.5542857 L110.329285,5.17714286 L113.473571,5.17714286 L106.631428,20.3671429 Z" id="Shape" fill="#23B1D3"></path>
                </g>
                <path d="M12.6428571,7.71428571 C13.9446712,7.71428571 15,6.65895689 15,5.35714286 C15,4.05532882 13.9446712,3 12.6428571,3 C11.3410431,3 10.2857143,4.05532882 10.2857143,5.35714286 C10.2857143,6.65895689 11.3410431,7.71428571 12.6428571,7.71428571 Z M12.6428571,10.7142857 C9.68418886,10.7142857 7.28571429,8.31581114 7.28571429,5.35714286 C7.28571429,2.39847455 9.68418886,0 12.6428571,0 C15.6015254,0 18,2.39847455 18,5.35714286 C18,8.31581114 15.6015254,10.7142857 12.6428571,10.7142857 Z M6.85714286,10.7142857 C9.69746443,10.7142857 12,13.0168213 12,15.8571429 L12,28.5 C12,29.3284271 11.3284271,30 10.5,30 C9.67157289,30 9,29.3284271 9,28.5 L9,15.8571429 C9,14.6736755 8.04061018,13.7142857 6.85714286,13.7142857 L1.5,13.7142857 C0.671572875,13.7142857 -1.0658141e-14,13.0427128 -1.0658141e-14,12.2142857 C-1.0658141e-14,11.3858586 0.671572875,10.7142857 1.5,10.7142857 L6.85714286,10.7142857 Z M18.4285714,10.7142857 L23.7857143,10.7142857 C24.6141414,10.7142857 25.2857143,11.3858586 25.2857143,12.2142857 C25.2857143,13.0427128 24.6141414,13.7142857 23.7857143,13.7142857 L18.4285714,13.7142857 C17.2451041,13.7142857 16.2857143,14.6736755 16.2857143,15.8571429 L16.2857143,28.5 C16.2857143,29.3284271 15.6141414,30 14.7857143,30 C13.9572872,30 13.2857143,29.3284271 13.2857143,28.5 L13.2857143,15.8571429 C13.2857143,13.0168213 15.5882499,10.7142857 18.4285714,10.7142857 Z" id="Combined-Shape" fill="#0139BA"></path>
            </g>
        </g>
    </g>
</svg>