<?xml version="1.0" encoding="UTF-8"?>
<svg width="16px" height="16px" viewBox="0 0 16 16" version="1.1" xmlns="http://www.w3.org/2000/svg" xmlns:xlink="http://www.w3.org/1999/xlink">
    <!-- Generator: sketchtool 53.1 (72631) - https://sketchapp.com -->
    <title>45FD6047-F7AA-4CA1-AA01-FEC429CAA577</title>
    <desc>Created with sketchtool.</desc>
    <defs>
        <rect id="path-1" x="0" y="0" width="24" height="24"></rect>
    </defs>
    <g id="📱-Screens" stroke="none" stroke-width="1" fill="none" fill-rule="evenodd">
        <g id="07.1.1-Candidate-Detail-[Normal]" transform="translate(-1326.000000, -679.000000)">
            <g id="Group-4" transform="translate(300.000000, 464.000000)">
                <g id="Tables-/-Calls1" transform="translate(1.000000, 201.000000)">
                    <g id="icon-/-message" transform="translate(1021.000000, 10.000000)">
                        <g id="icon-/-plus">
                            <mask id="mask-2" fill="white">
                                <use xlink:href="#path-1"></use>
                            </mask>
                            <use id="Rectangle" fill="#3C4D53" fill-rule="nonzero" opacity="0" xlink:href="#path-1"></use>
                            <g id="message-circle" mask="url(#mask-2)" fill="#454545" fill-rule="nonzero">
                                <g transform="translate(4.800000, 4.800000)" id="Path">
                                    <path d="M1.26491106,13.1350889 L4.30701779,12.1210534 C4.50937448,12.0536011 4.73028914,12.0697533 4.92068269,12.1659216 C5.75070577,12.5851682 6.66802164,12.8024272 7.59969044,12.8000001 C9.87186045,12.7991208 11.9486028,11.5148197 12.9659216,9.47931731 C13.3851682,8.64929423 13.6024272,7.73197836 13.6000027,6.80208581 L13.6012147,6.44406834 C13.4331972,3.39857263 11.0014274,0.966802834 8,0.8 L7.59791419,0.799997281 C6.66802164,0.7975728 5.75070577,1.01483182 4.917647,1.43560368 C2.88518033,2.45139723 1.60087916,4.52813955 1.59999728,6.80208581 C1.5975728,7.73197836 1.81483182,8.64929423 2.23407843,9.47931731 C2.33024666,9.66971086 2.34639887,9.89062552 2.27894664,10.0929822 L1.26491106,13.1350889 Z M14.3956037,10.197647 C13.1089318,12.7721048 10.4783916,14.3988863 7.60208581,14.3999973 C6.53402888,14.402782 5.47902593,14.177546 4.50715891,13.7408877 L0.252982213,15.1589466 C-0.372424211,15.3674154 -0.967415447,14.7724242 -0.758946638,14.1470178 L0.659111954,9.89284201 C0.222453843,8.92099006 -0.00278224951,7.86614196 5.98923116e-08,6.79969044 C0.00111373555,3.92160843 1.62789522,1.29106816 4.19931731,0.00592157354 C5.2542789,-0.526941997 6.42018986,-0.803078803 7.6,-0.8 L8.04406834,-0.798785316 C11.9038677,-0.585843329 14.9858433,2.49613229 15.2,6.4 L15.2,6.79898647 C15.2029118,7.98051532 14.9267813,9.14603922 14.3956037,10.197647 Z"></path>
                                </g>
                            </g>
                        </g>
                    </g>
                </g>
            </g>
        </g>
    </g>
</svg>