<svg xmlns="http://www.w3.org/2000/svg" xmlns:xlink="http://www.w3.org/1999/xlink" width="14" height="16" viewBox="0 0 14 16">
  <defs>
    <rect id="notifications-a" width="20" height="20"/>
  </defs>
  <g fill="none" fill-rule="evenodd" transform="translate(-3 -2)">
    <mask id="notifications-b" fill="#fff">
      <use xlink:href="#notifications-a"/>
    </mask>
    <use fill="#FFF" fill-rule="nonzero" opacity="0" xlink:href="#notifications-a"/>
    <path fill="#FFF" fill-rule="nonzero" d="M13.3333333,7.33333333 C13.3333333,5.49238417 11.8409492,4 10,4 C8.15905083,4 6.66666667,5.49238417 6.66666667,7.33333333 C6.66666667,9.48349741 6.26531012,11.1558163 5.58526372,12.4025681 C5.53492472,12.4948562 5.48429278,12.5828564 5.43358551,12.6666667 L14.5664145,12.6666667 C14.5157072,12.5828564 14.4650753,12.4948562 14.4147363,12.4025681 C13.7346899,11.1558163 13.3333333,9.48349741 13.3333333,7.33333333 Z M14.6666667,7.33333333 C14.6666667,9.26650259 15.0153101,10.7191837 15.5852637,11.7640986 C15.7761013,12.1139674 15.9763109,12.3875873 16.1714685,12.5935869 C16.2768788,12.7048534 16.347872,12.7640144 16.3698001,12.7786331 C16.9186249,13.1445163 16.6596053,14 16,14 L4,14 C3.34039469,14 3.08137508,13.1445163 3.63019987,12.7786331 C3.65212799,12.7640144 3.72312117,12.7048534 3.82853154,12.5935869 C4.02368908,12.3875873 4.22389874,12.1139674 4.41473628,11.7640986 C4.98468988,10.7191837 5.33333333,9.26650259 5.33333333,7.33333333 C5.33333333,4.7560045 7.42267117,2.66666667 10,2.66666667 C12.5773288,2.66666667 14.6666667,4.7560045 14.6666667,7.33333333 Z M10.5766667,15.6654854 C10.761414,15.3470012 11.1693637,15.238586 11.4878479,15.4233333 C11.8063321,15.6080806 11.9147473,16.0160304 11.73,16.3345146 C11.3722022,16.9513189 10.7130686,17.3309709 10,17.3309709 C9.28693139,17.3309709 8.62779776,16.9513189 8.27,16.3345146 C8.0852527,16.0160304 8.19366789,15.6080806 8.51215209,15.4233333 C8.8306363,15.238586 9.23858604,15.3470012 9.42333333,15.6654854 C9.54259925,15.8710869 9.76231046,15.9976375 10,15.9976375 C10.2376895,15.9976375 10.4574007,15.8710869 10.5766667,15.6654854 Z" mask="url(#notifications-b)"/>
  </g>
</svg>
