<svg xmlns="http://www.w3.org/2000/svg" xmlns:xlink="http://www.w3.org/1999/xlink" width="12" height="16" viewBox="0 0 12 16">
  <defs>
    <rect id="onboarding-a" width="20" height="20"/>
  </defs>
  <g fill="none" fill-rule="evenodd" transform="translate(-4 -2)">
    <mask id="onboarding-b" fill="#fff">
      <use xlink:href="#onboarding-a"/>
    </mask>
    <use fill="#3C4D53" fill-rule="nonzero" opacity="0" xlink:href="#onboarding-a"/>
    <path fill="#FFF" fill-rule="nonzero" d="M12,4.94280904 L12,6.66666667 L13.7238576,6.66666667 L12,4.94280904 Z M14.6666667,8 L11.3333333,8 C10.9651435,8 10.6666667,7.70152317 10.6666667,7.33333333 L10.6666667,4 L6,4 C5.63181017,4 5.33333333,4.29847683 5.33333333,4.66666667 L5.33333333,15.3333333 C5.33333333,15.7015232 5.63181017,16 6,16 L14,16 C14.3681898,16 14.6666667,15.7015232 14.6666667,15.3333333 L14.6666667,8 Z M11.3333333,2.66666667 C11.5101443,2.66666667 11.6797136,2.73690456 11.8047379,2.86192881 L15.8047379,6.86192881 C15.9297621,6.98695306 16,7.15652234 16,7.33333333 L16,15.3333333 C16,16.4379028 15.1045695,17.3333333 14,17.3333333 L6,17.3333333 C4.8954305,17.3333333 4,16.4379028 4,15.3333333 L4,4.66666667 C4,3.56209717 4.8954305,2.66666667 6,2.66666667 L11.3333333,2.66666667 Z M12.6666667,10 C13.0348565,10 13.3333333,10.2984768 13.3333333,10.6666667 C13.3333333,11.0348565 13.0348565,11.3333333 12.6666667,11.3333333 L7.33333333,11.3333333 C6.9651435,11.3333333 6.66666667,11.0348565 6.66666667,10.6666667 C6.66666667,10.2984768 6.9651435,10 7.33333333,10 L12.6666667,10 Z M12.6666667,12.6666667 C13.0348565,12.6666667 13.3333333,12.9651435 13.3333333,13.3333333 C13.3333333,13.7015232 13.0348565,14 12.6666667,14 L7.33333333,14 C6.9651435,14 6.66666667,13.7015232 6.66666667,13.3333333 C6.66666667,12.9651435 6.9651435,12.6666667 7.33333333,12.6666667 L12.6666667,12.6666667 Z M8.66666667,7.33333333 C9.0348565,7.33333333 9.33333333,7.63181017 9.33333333,8 C9.33333333,8.36818983 9.0348565,8.66666667 8.66666667,8.66666667 L7.33333333,8.66666667 C6.9651435,8.66666667 6.66666667,8.36818983 6.66666667,8 C6.66666667,7.63181017 6.9651435,7.33333333 7.33333333,7.33333333 L8.66666667,7.33333333 Z" mask="url(#onboarding-b)"/>
  </g>
</svg>
