<svg xmlns="http://www.w3.org/2000/svg" xmlns:xlink="http://www.w3.org/1999/xlink" width="14" height="14" viewBox="0 0 14 14">
  <defs>
    <rect id="questions-a" width="20" height="20"/>
  </defs>
  <g fill="none" fill-rule="evenodd" transform="translate(-3 -3)">
    <mask id="questions-b" fill="#fff">
      <use xlink:href="#questions-a"/>
    </mask>
    <use fill="#3C4D53" fill-rule="nonzero" opacity="0" xlink:href="#questions-a"/>
    <g fill="#FFF" fill-rule="nonzero" mask="url(#questions-b)">
      <path d="M1.05409255,10.9459074 L3.58918149,10.1008778 C3.75781206,10.0446676 3.94190761,10.0581278 4.10056891,10.138268 C4.79225481,10.4876401 5.5566847,10.6686893 6.33307537,10.6666667 C8.22655037,10.665934 9.95716897,9.59568306 10.8049346,7.89943109 C11.1543068,7.20774519 11.335356,6.4433153 11.3333356,5.66840484 L11.3343456,5.37005695 C11.194331,2.83214386 9.16785614,0.805669029 6.66666667,0.666666667 L6.33159516,0.666664401 C5.5566847,0.664644 4.79225481,0.845693185 4.09803917,1.1963364 C2.40431694,2.04283103 1.33406596,3.77344963 1.33333107,5.66840484 C1.33131067,6.4433153 1.51235985,7.20774519 1.86173202,7.89943109 C1.94187221,8.05809239 1.95533239,8.24218794 1.8991222,8.41081851 L1.05409255,10.9459074 Z M11.9963364,8.49803917 C10.9241099,10.6434207 8.73199297,11.9990719 6.33507151,11.9999977 C5.44502407,12.0023183 4.56585494,11.8146217 3.75596575,11.4507398 L0.210818511,12.6324555 C-0.31035351,12.8061795 -0.806179539,12.3103535 -0.632455532,11.7891815 L0.549259962,8.24403501 C0.185378202,7.43415838 -0.00231854126,6.5551183 4.99102595e-08,5.6664087 C0.00092811296,3.26800703 1.35657935,1.07589013 3.49943109,0.00493464462 C4.37856575,-0.439118331 5.35015821,-0.669232336 6.33333333,-0.666666667 L6.70339028,-0.66565443 C9.91988976,-0.488202774 12.4882028,2.08011024 12.6666667,5.33333333 L12.6666667,5.66582206 C12.6690931,6.65042943 12.4389844,7.62169935 11.9963364,8.49803917 Z" transform="translate(4 4)"/>
    </g>
  </g>
</svg>
