<svg xmlns="http://www.w3.org/2000/svg" xmlns:xlink="http://www.w3.org/1999/xlink" width="16" height="14" viewBox="0 0 16 14">
  <defs>
    <rect id="recruiters-a" width="20" height="20"/>
  </defs>
  <g fill="none" fill-rule="evenodd" transform="translate(-2 -3)">
    <mask id="recruiters-b" fill="#fff">
      <use xlink:href="#recruiters-a"/>
    </mask>
    <use fill="#FFF" fill-rule="nonzero" opacity="0" xlink:href="#recruiters-a"/>
    <path fill="#FFF" fill-rule="nonzero" d="M6.66666667,15.3333333 L6.66666667,7.33333333 L4.66666667,7.33333333 C4.29847683,7.33333333 4,7.63181017 4,8 L4,14.6666667 C4,15.0348565 4.29847683,15.3333333 4.66666667,15.3333333 L6.66666667,15.3333333 Z M8,15.3333333 L12,15.3333333 L12,7.33333333 L8,7.33333333 L8,15.3333333 Z M13.3333333,15.3333333 L15.3333333,15.3333333 C15.7015232,15.3333333 16,15.0348565 16,14.6666667 L16,8 C16,7.63181017 15.7015232,7.33333333 15.3333333,7.33333333 L13.3333333,7.33333333 L13.3333333,15.3333333 Z M6.66666667,6 L6.66666667,5.33333333 C6.66666667,4.22876383 7.56209717,3.33333333 8.66666667,3.33333333 L11.3333333,3.33333333 C12.4379028,3.33333333 13.3333333,4.22876383 13.3333333,5.33333333 L13.3333333,6 L15.3333333,6 C16.4379028,6 17.3333333,6.8954305 17.3333333,8 L17.3333333,14.6666667 C17.3333333,15.7712362 16.4379028,16.6666667 15.3333333,16.6666667 L4.66666667,16.6666667 C3.56209717,16.6666667 2.66666667,15.7712362 2.66666667,14.6666667 L2.66666667,8 C2.66666667,6.8954305 3.56209717,6 4.66666667,6 L6.66666667,6 Z M8,6 L12,6 L12,5.33333333 C12,4.9651435 11.7015232,4.66666667 11.3333333,4.66666667 L8.66666667,4.66666667 C8.29847683,4.66666667 8,4.9651435 8,5.33333333 L8,6 Z" mask="url(#recruiters-b)"/>
  </g>
</svg>
