<?xml version="1.0" encoding="UTF-8"?>
<svg width="16px" height="16px" viewBox="0 0 16 16" version="1.1" xmlns="http://www.w3.org/2000/svg" xmlns:xlink="http://www.w3.org/1999/xlink">
    <!-- Generator: sketchtool 53.1 (72631) - https://sketchapp.com -->
    <title>A386751D-E625-429E-8B45-395C04DFC300</title>
    <desc>Created with sketchtool.</desc>
    <defs>
        <rect id="path-1" x="0" y="0" width="20" height="20"></rect>
    </defs>
    <g id="📱-Screens" stroke="none" stroke-width="1" fill="none" fill-rule="evenodd">
        <g id="07.1.1-Candidate-Detail-[Normal]" transform="translate(-418.000000, -52.000000)">
            <g id="Title" transform="translate(270.000000, 0.000000)">
                <g id="icon-/-settings" transform="translate(146.000000, 50.000000)">
                    <g id="icon-/-plus">
                        <mask id="mask-2" fill="white">
                            <use xlink:href="#path-1"></use>
                        </mask>
                        <use id="Rectangle" fill="#3C4D53" fill-rule="nonzero" opacity="0" xlink:href="#path-1"></use>
                        <path d="M10,12.6666667 C8.52724067,12.6666667 7.33333333,11.4727593 7.33333333,10 C7.33333333,8.52724067 8.52724067,7.33333333 10,7.33333333 C11.4727593,7.33333333 12.6666667,8.52724067 12.6666667,10 C12.6666667,11.4727593 11.4727593,12.6666667 10,12.6666667 Z M10,11.3333333 C10.7363797,11.3333333 11.3333333,10.7363797 11.3333333,10 C11.3333333,9.26362033 10.7363797,8.66666667 10,8.66666667 C9.26362033,8.66666667 8.66666667,9.26362033 8.66666667,10 C8.66666667,10.7363797 9.26362033,11.3333333 10,11.3333333 Z M15.94,10.6666667 L16,10.6666667 C16.3681898,10.6666667 16.6666667,10.3681898 16.6666667,10 C16.6666667,9.63181017 16.3681898,9.33333333 16,9.33333333 L15.8840078,9.33332803 C15.1798649,9.33051967 14.5446264,8.90983191 14.2672401,8.26262096 C14.2430963,8.20628755 14.226891,8.14702352 14.2189719,8.08652395 C13.998108,7.45647854 14.1513619,6.74975321 14.6285955,6.26192881 L14.6688578,6.22166667 C14.7940425,6.09662116 14.8643822,5.9269395 14.8643822,5.75 C14.8643822,5.5730605 14.7940425,5.40337884 14.6683333,5.2778089 C14.5432878,5.1526242 14.3736062,5.08228446 14.1966667,5.08228446 C14.0197272,5.08228446 13.8500455,5.1526242 13.7247379,5.27807119 L13.67951,5.32324172 C13.1632292,5.82825771 12.3915458,5.96817833 11.737379,5.67942655 C11.0901681,5.40204031 10.6694803,4.7668018 10.6666667,4.06 L10.6666667,4 C10.6666667,3.63181017 10.3681898,3.33333333 10,3.33333333 C9.63181017,3.33333333 9.33333333,3.63181017 9.33333333,4 L9.33332803,4.11599221 C9.33051967,4.82013513 8.90983191,5.45537364 8.26262096,5.73275988 C8.20628755,5.75690365 8.14702352,5.77310903 8.08652395,5.78102806 C7.45647854,6.00189203 6.74975321,5.84863811 6.26192881,5.37140452 L6.22166667,5.33114223 C6.09662116,5.20595753 5.9269395,5.13561779 5.75,5.13561779 C5.5730605,5.13561779 5.40337884,5.20595753 5.2778089,5.33166667 C5.1526242,5.45671217 5.08228446,5.62639383 5.08228446,5.80333333 C5.08228446,5.98027283 5.1526242,6.1499545 5.27807119,6.27526215 L5.32324172,6.32049003 C5.82825771,6.83677077 5.96817833,7.60845419 5.6923574,8.23012073 C5.44195631,8.91095313 4.80081086,9.36952073 4.06,9.38666667 L4,9.38666667 C3.63181017,9.38666667 3.33333333,9.6851435 3.33333333,10.0533333 C3.33333333,10.4215232 3.63181017,10.72 4,10.72 L4.11599221,10.7200053 C4.82013513,10.7228137 5.45537364,11.1435014 5.72990839,11.7841564 C6.02151167,12.4448791 5.88159105,13.2165626 5.37140452,13.7380712 L5.33114223,13.7783333 C5.20595753,13.9033788 5.13561779,14.0730605 5.13561779,14.25 C5.13561779,14.4269395 5.20595753,14.5966212 5.33166667,14.7221911 C5.45671217,14.8473758 5.62639383,14.9177155 5.80333333,14.9177155 C5.98027283,14.9177155 6.1499545,14.8473758 6.27526215,14.7219288 L6.32049003,14.6767583 C6.83677077,14.1717423 7.60845419,14.0318217 8.23012073,14.3076426 C8.91095313,14.5580437 9.36952073,15.1991891 9.38666667,15.94 L9.38666667,16 C9.38666667,16.3681898 9.6851435,16.6666667 10.0533333,16.6666667 C10.4215232,16.6666667 10.72,16.3681898 10.72,16 L10.7200053,15.8840078 C10.7228137,15.1798649 11.1435014,14.5446264 11.7841564,14.2700916 C12.4448791,13.9784883 13.2165626,14.118409 13.7380712,14.6285955 L13.7783333,14.6688578 C13.9033788,14.7940425 14.0730605,14.8643822 14.25,14.8643822 C14.4269395,14.8643822 14.5966212,14.7940425 14.7221911,14.6683333 C14.8473758,14.5432878 14.9177155,14.3736062 14.9177155,14.1966667 C14.9177155,14.0197272 14.8473758,13.8500455 14.7219288,13.7247379 L14.6767583,13.67951 C14.1725758,13.1640813 14.0322845,12.3940923 14.3219847,11.7340954 C14.6001105,11.0887451 15.2343946,10.6694756 15.94,10.6666667 Z M15.5325324,7.81011646 C15.6117755,7.92693737 15.7442249,7.99942745 15.8866667,8 L16,8 C17.1045695,8 18,8.8954305 18,10 C18,11.1045695 17.1045695,12 16,12 L15.9426589,11.9999947 C15.7699446,12.0006835 15.6141314,12.1038711 15.5460932,12.262621 L15.5432417,12.2691769 C15.4717164,12.431241 15.5060365,12.6205218 15.6247379,12.7419288 L15.6644756,12.7816667 C16.0400296,13.1568032 16.2510489,13.6658482 16.2510489,14.1966667 C16.2510489,14.7274852 16.0400296,15.2365302 15.665,15.6111422 C15.2898635,15.9866963 14.7808185,16.1977155 14.25,16.1977155 C13.7191815,16.1977155 13.2101365,15.9866963 12.8352621,15.6114045 L12.80049,15.5765751 C12.6738551,15.4527032 12.4845743,15.4183831 12.3159543,15.4927599 C12.1572044,15.560798 12.0540169,15.7166112 12.0533333,15.8866667 L12.0533333,16 C12.0533333,17.1045695 11.1579028,18 10.0533333,18 C8.94876383,18 8.05333333,17.1045695 8.05333333,16 L8.05351564,15.9555897 C8.04935475,15.7777053 7.9368759,15.6204432 7.73082311,15.5432417 C7.56875905,15.4717164 7.37947821,15.5060365 7.25807119,15.6247379 L7.21833333,15.6644756 C6.84319682,16.0400296 6.33415183,16.2510489 5.80333333,16.2510489 C5.27251484,16.2510489 4.76346985,16.0400296 4.38885777,15.665 C4.01330368,15.2898635 3.80228446,14.7808185 3.80228446,14.25 C3.80228446,13.7191815 4.01330368,13.2101365 4.38859548,12.8352621 L4.42342494,12.80049 C4.54729679,12.6738551 4.58161694,12.4845743 4.50724012,12.3159543 C4.43920198,12.1572044 4.28338876,12.0540169 4.11333333,12.0533333 L4,12.0533333 C2.8954305,12.0533333 2,11.1579028 2,10.0533333 C2,8.94876383 2.8954305,8.05333333 4,8.05333333 L4.04441027,8.05351564 C4.22229471,8.04935475 4.37955679,7.9368759 4.45675828,7.73082311 C4.52828361,7.56875905 4.49396346,7.37947821 4.37526215,7.25807119 L4.33552444,7.21833333 C3.95997035,6.84319682 3.74895112,6.33415183 3.74895112,5.80333333 C3.74895112,5.27251484 3.95997035,4.76346985 4.335,4.38885777 C4.71013651,4.01330368 5.2191815,3.80228446 5.75,3.80228446 C6.2808185,3.80228446 6.78986349,4.01330368 7.16473785,4.38859548 L7.19950997,4.42342494 C7.32614487,4.54729679 7.51542571,4.58161694 7.67748977,4.51009161 C7.72020431,4.49123998 7.76466258,4.47697941 7.81011646,4.46746764 C7.92693737,4.3882245 7.99942745,4.25577513 8,4.11333333 L8,4 C8,2.8954305 8.8954305,2 10,2 C11.1045695,2 12,2.8954305 12,4 L11.9999947,4.05734113 C12.0006835,4.23005543 12.1038711,4.38586865 12.2691769,4.45675828 C12.431241,4.52828361 12.6205218,4.49396346 12.7419288,4.37526215 L12.7816667,4.33552444 C13.1568032,3.95997035 13.6658482,3.74895112 14.1966667,3.74895112 C14.7274852,3.74895112 15.2365302,3.95997035 15.6111422,4.335 C15.9866963,4.71013651 16.1977155,5.2191815 16.1977155,5.75 C16.1977155,6.2808185 15.9866963,6.78986349 15.6114045,7.16473785 L15.5765751,7.19950997 C15.4527032,7.32614487 15.4183831,7.51542571 15.4899084,7.67748977 C15.50876,7.72020431 15.5230206,7.76466258 15.5325324,7.81011646 Z" id="Combined-Shape" fill="#454545" fill-rule="nonzero" mask="url(#mask-2)"></path>
                    </g>
                </g>
            </g>
        </g>
    </g>
</svg>